<svg fill="none" height="16" viewBox="0 0 24 24" width="16" xmlns="http://www.w3.org/2000/svg"><g fill="#292d32"><path d="m12.9995 11.75c-.19 0-.38-.07-.53-.22-.29-.29-.29-.77 0-1.06l8.2-8.20001c.29-.29.77-.29 1.06 0s.29.77 0 1.06l-8.2 8.20001c-.15.15-.34.22-.53.22z"/><path d="m21.9992 7.55c-.41 0-.75-.34-.75-.75v-4.05h-4.05c-.41 0-.75-.34-.75-.75s.34-.75.75-.75h4.8c.41 0 .75.34.75.75v4.8c0 .41-.34.75-.75.75z"/><path d="m15 22.75h-6c-5.43 0-7.75-2.32-7.75-7.75v-6c0-5.43 2.32-7.75 7.75-7.75h2c.41 0 .75.34.75.75s-.34.75-.75.75h-2c-4.61 0-6.25 1.64-6.25 6.25v6c0 4.61 1.64 6.25 6.25 6.25h6c4.61 0 6.25-1.64 6.25-6.25v-2c0-.41.34-.75.75-.75s.75.34.75.75v2c0 5.43-2.32 7.75-7.75 7.75z"/></g></svg>