<svg width="24" height="24" viewBox="0 0 1024 1024" fill="white" xmlns="http://www.w3.org/2000/svg"><path d="m824.2 699.9a301.55 301.55 0 0 0 -86.4-60.4c45.3-36.7 74.2-92.7 74.2-155.5 0-110.8-92.4-201.7-203.2-200-109.1 1.7-197 90.6-197 200 0 62.8 29 118.8 74.2 155.5a300.95 300.95 0 0 0 -86.4 60.4c-54.6 54.7-85.6 126.9-87.6 203.9a8 8 0 0 0 8 8.2h56c4.3 0 7.9-3.4 8-7.7 1.9-58 25.4-112.3 66.7-153.5a226.62 226.62 0 0 1 161.3-66.8c60.9 0 118.2 23.7 161.3 66.8 41.2 41.2 64.7 95.5 66.7 153.5.1 4.3 3.7 7.7 8 7.7h56a8 8 0 0 0 8-8.2c-2-77-33-149.2-87.8-203.9zm-212.2-87.9c-34.2 0-66.4-13.3-90.5-37.5a126.86 126.86 0 0 1 -37.5-91.8c.3-32.8 13.4-64.5 36.3-88 24-24.6 56.1-38.3 90.4-38.7 33.9-.3 66.8 12.9 91 36.6 24.8 24.3 38.4 56.8 38.4 91.4 0 34.2-13.3 66.3-37.5 90.5a127.3 127.3 0 0 1 -90.6 37.5zm-250.5-101.6c-.9-8.7-1.4-17.5-1.4-26.4 0-15.9 1.5-31.4 4.3-46.5.7-3.6-1.2-7.3-4.5-8.8-13.6-6.1-26.1-14.5-36.9-25.1a127.54 127.54 0 0 1 -38.7-95.4c.9-32.1 13.8-62.6 36.3-85.6 24.7-25.3 57.9-39.1 93.2-38.7 31.9.3 62.7 12.6 86 34.4 7.9 7.4 14.7 15.6 20.4 24.4 2 3.1 5.9 4.4 9.3 3.2 17.6-6.1 36.2-10.4 55.3-12.4 5.6-.6 8.8-6.6 6.3-11.6-32.5-64.3-98.9-108.7-175.7-109.9-110.9-1.7-203.3 89.2-203.3 199.9 0 62.8 28.9 118.8 74.2 155.5-31.8 14.7-61.1 35-86.5 60.4-54.8 54.7-85.8 126.9-87.8 204a8 8 0 0 0 8 8.2h56.1c4.3 0 7.9-3.4 8-7.7 1.9-58 25.4-112.3 66.7-153.5 29.4-29.4 65.4-49.8 104.7-59.7 3.9-1 6.5-4.7 6-8.7z"/></svg>